<svg xmlns="http://www.w3.org/2000/svg" viewBox="0 0 768 768" fill="none" shape-rendering="auto"><metadata xmlns:rdf="http://www.w3.org/1999/02/22-rdf-syntax-ns#" xmlns:xsi="http://www.w3.org/2001/XMLSchema-instance" xmlns:dc="http://purl.org/dc/elements/1.1/" xmlns:dcterms="http://purl.org/dc/terms/"><rdf:RDF><rdf:Description><dc:title>ToonHead</dc:title><dc:creator>Johan Melin</dc:creator><dc:source xsi:type="dcterms:URI">https://www.figma.com/community/file/1589627891082866389</dc:source><dcterms:license xsi:type="dcterms:URI">https://creativecommons.org/licenses/by/4.0/</dcterms:license><dc:rights>Remix of „ToonHead” (https://www.figma.com/community/file/1589627891082866389) by „Johan Melin”, licensed under „CC BY 4.0” (https://creativecommons.org/licenses/by/4.0/)</dc:rights></rdf:Description></rdf:RDF></metadata><mask id="viewboxMask"><rect width="768" height="768" rx="0" ry="0" x="0" y="0" fill="#fff" /></mask><g mask="url(#viewboxMask)"><g transform="translate(0 10)"></g><path d="M432.5 556.5v69.45l.4.07c120.31 22.8 211.36 128.92 211.6 256.48h-520c.24-127.56 91.29-233.7 211.6-256.48l.4-.07V556.5z" fill="#b98e6a" stroke="black"/><path d="M336 556h97v37s-30.58 9.4-49 9.5c-19.59.1-48-9.5-48-9.5z" fill="black" fill-opacity="0.2"/><path d="M191.5 452.5c-20-77.5 33.5-50 33.5-50C189.18 286.68 217 140 384 140s194.82 146.68 159 262.5c0 0 53.5-27.5 33.5 50-11.1 43-51 43-51 43C519.57 545.9 434 591 384 591s-135.57-45.1-141.5-95.5c0 0-39.9 0-51-43Z" fill="#b98e6a" stroke="black"/><path d="M202.22 410c19.81-10.14 38.7 54.5 30 69-16.5 8.5-55-56.21-30-69m363.96 0c-19.82-10.14-38.7 54.5-30 69 16.5 8.5 55-56.21 30-69M384 469.5c-7.81 0-18-7.5-16-9.5 2-3 8.19 3 16 3s14-6 16-3c1.81 2.17-8.19 9.5-16 9.5" fill="black" fill-opacity="0.2"/><path d="M645 883H124c0-114.39 72.89-211.66 174.5-247.39 12.12-4.26 24.64-39.68 37.5-42.11 15.71 46.5 31.43 56.5 48 67 16.57-10.5 33.29-20.5 49-67 12.86 2.43 25.38 37.85 37.5 42.11C572.11 671.34 645 768.61 645 883Z" fill="#CBECF7" stroke="black"/><path d="M336.5 715 302 652l34.5 52.5L379 670zm94 0 34.5-63-34.5 52.5L389 670z" fill="black" fill-opacity="0.2"/><path d="M645 883H124a262.1 262.1 0 0 1 163-243.03C308 670 350.03 779 384.5 779S468 670 482 639.97c95.57 38.82 163 133 163 243.03Z" fill="#151613" stroke="black"/><mask id="mouthAngry-a" style="mask-type:alpha" maskUnits="userSpaceOnUse" x="335" y="487" width="98" height="48"><path d="M384 528.5c19.7 0 33.84 11.72 47.59 2.85 4.32-2.82-12.59-44.35-47.6-44.35s-51.7 41.53-47.35 44.35c13.75 8.87 27.62-2.85 47.32-2.85" fill="#611519"/></mask><g mask="url(#mouthAngry-a)"><path d="M384.13 538.89c19.7 0 33.7 1.33 47.46-7.54 4.36-2.82-12.42-44.35-47.46-44.35s-51.81 41.53-47.45 44.35c13.75 8.87 27.75 7.54 47.45 7.54" fill="#611519"/><path d="M384.13 540.66c.04 0 18.64 0 29.27-1.33 7-.87 12.86-5.32 12.86-5.32s-1.76-4.3-3.54-6.65a37 37 0 0 0-4.44-4.44 180 180 0 0 0-34.15-2.92c-11.62-.1-22.88.85-34.15 2.92 0 0-2.95 2.5-4.43 4.44-1.8 2.34-3.55 6.64-3.55 6.64.02 0 5.87 4.45 12.86 5.32 10.64 1.33 29.27 1.33 29.27 1.33m0-55.65c.04 0 18.64 0 29.27 1.33 7 .88 12.86 5.32 12.86 5.32s-1.76 4.31-3.54 6.66a37 37 0 0 1-4.44 4.43 180 180 0 0 1-34.15 2.92c-11.62.1-22.88-.85-34.15-2.92 0 0-2.95-2.49-4.43-4.44-1.79-2.33-3.55-6.64-3.55-6.65.02 0 5.87-4.45 12.86-5.32C365.5 485 384.13 485 384.13 485" fill="#F6F1E4"/></g><path fill-rule="evenodd" clip-rule="evenodd" d="m543 403.07-1-.07 1 .07v.03l-.01.1-.03.38-.11 1.47-.45 5.6a1523 1523 0 0 1-9.27 84c-3.36 23.96-7.6 49-12.79 70.2-2.6 10.58-5.42 20.23-8.5 28.3-3.07 8.06-6.42 14.62-10.07 19-10.68 12.77-29.9 33.45-51.5 50.94-10.82 8.74-22.24 16.7-33.52 22.5-11.27 5.77-22.45 9.4-32.75 9.4s-21.55-3.63-32.9-9.4c-11.37-5.8-22.93-13.75-33.86-22.5-21.86-17.5-41.33-38.17-52-50.95-3.66-4.37-7-10.93-10.08-19s-5.9-17.71-8.5-28.3c-5.19-21.2-9.43-46.23-12.79-70.18a1523 1523 0 0 1-9.72-89.61l-.1-1.47-.04-.38v-.12l1-.08-1 .07 1.93-.4c6.7 18.82 14.4 47.66 26.88 71.96 12.34 24.02 29.13 43.14 53.78 43.85 1.7-15.95 11.7-27.9 25.7-35.85 14.27-8.1 32.76-12.13 51.2-12.13s36.93 4.03 51.2 12.13c14 7.96 24 19.9 25.7 35.85 24.65-.7 41.44-19.83 53.78-43.85 12.5-24.3 20.2-53.14 26.88-71.96zM383.5 487c-34.66 0-51.49 23-54.18 43.15-1.33 10.04.8 19.54 6.2 25.1a16 16 0 0 0 10.48 4.88c4.22.3 9.07-.84 14.47-3.75 1.81-.97 3.38-2.64 4.87-4.46 1.55-1.89 2.96-3.85 4.67-5.83 3.34-3.85 7.34-7.1 13.5-7.1 6.14 0 10.14 3.25 13.48 7.1 1.71 1.98 3.12 3.94 4.67 5.83 1.5 1.82 3.05 3.49 4.86 4.46 5.4 2.9 10.26 4.06 14.48 3.75a16 16 0 0 0 10.47-4.88c5.4-5.56 7.54-15.06 6.2-25.1C435 510 418.17 487 383.5 487Z" fill="#2c1b18" stroke="black"/><path d="M384 694c-40.31 0-96.7-57.01-118-82.5 0 0 71.61 59 117.5 59s117.5-59 117.5-59c-21.3 25.49-76.69 82.5-117 82.5" fill="black" fill-opacity="0.2"/><path d="m274.5 400.75-4.25 11c27.75 0 40.74 15.54 64.25 0C351.14 400.75 349 390 349 390s-2.75 16.93-41 16.93c-22.71 0-28-19-47-10zm218.59 0 4.23 11c-27.75 0-40.74 15.54-64.25 0-16.64-11-14.5-21.75-14.5-21.75s2.75 16.93 41 16.93c22.71 0 28-19 47-10z" fill="#4B2422"/><path d="m365.5 360.35-5.5 19s5.68-4.86 7-8.5c1.68-4.64-1.5-10.5-1.5-10.5m37.5.35 5.5 19s-5.69-4.86-7-8.5c-1.7-4.64 1.5-10.5 1.5-10.5" fill="black" fill-opacity="0.2"/><g fill="#2c1b18"><path d="M313.9 367.95c15.24.92 27.47 19.57 38.02 9.58s-22.3-28.37-39.72-28.3c-14.95.07-38.1 11.14-35.8 13.58s22.75 4.24 37.5 5.14m140.69.35c-15.24.92-27.46 19.57-38.02 9.58-10.55-10 22.3-28.37 39.72-28.3 14.95.07 38.1 11.15 35.8 13.58-2.33 2.44-22.78 4.24-37.53 5.14"/><path d="M313.9 367.95c15.24.92 27.47 19.57 38.02 9.58s-22.3-28.37-39.72-28.3c-14.95.07-38.1 11.14-35.8 13.58s22.75 4.24 37.5 5.14Zm140.69.35c-15.24.92-27.46 19.57-38.02 9.58-10.55-10 22.3-28.37 39.72-28.3 14.95.07 38.1 11.15 35.8 13.58-2.33 2.44-22.78 4.24-37.53 5.14Z" stroke="black"/></g><path d="m214.5 399 11 4s-11.76-36.7 2.5-65.5c5.61-11.34 13.42-14.69 20-25.5 14.69-24.12-1.13-50.76 20-69.5 30.84-27.35 62.97 14.07 104 18 51.5 4.93 105.34-44.04 132.5 0 9.42 15.28 4.06 28.16 11.5 44.5 6.26 13.75 21 32.5 21 32.5l4 66 9.5-4.5c4.33-27.17 13-82.6 13-87s20.67-19.83 39.5-27h-23c12.33-22.5 37.6-69.4 40-77s-18.67 3.17-29.5 9.5c0 0 16.6-20.98 21-37 4.76-17.32 0-46 0-46l-31.5 17 10.5-59-27 11.5 7-65S540.8 69.5 516 77.5c-25.46 8.2-68.5 0-68.5 0l13-30-98 37.5V47.5l-58 37.5V61s-27.5 17.01-42 31.5C246.28 108.7 228 140 228 140l-35.5-24.5 5 77-38-12s2.08 24.06 9.5 37c5.1 8.9 17 20 17 20l-26.5 23h38l-21 35h21z" fill="#2c1b18" stroke="black"/></g></svg>