<svg xmlns="http://www.w3.org/2000/svg" viewBox="0 0 768 768" fill="none" shape-rendering="auto"><metadata xmlns:rdf="http://www.w3.org/1999/02/22-rdf-syntax-ns#" xmlns:xsi="http://www.w3.org/2001/XMLSchema-instance" xmlns:dc="http://purl.org/dc/elements/1.1/" xmlns:dcterms="http://purl.org/dc/terms/"><rdf:RDF><rdf:Description><dc:title>ToonHead</dc:title><dc:creator>Johan Melin</dc:creator><dc:source xsi:type="dcterms:URI">https://www.figma.com/community/file/1589627891082866389</dc:source><dcterms:license xsi:type="dcterms:URI">https://creativecommons.org/licenses/by/4.0/</dcterms:license><dc:rights>Remix of „ToonHead” (https://www.figma.com/community/file/1589627891082866389) by „Johan Melin”, licensed under „CC BY 4.0” (https://creativecommons.org/licenses/by/4.0/)</dc:rights></rdf:Description></rdf:RDF></metadata><mask id="viewboxMask"><rect width="768" height="768" rx="0" ry="0" x="0" y="0" fill="#fff" /></mask><g mask="url(#viewboxMask)"><g transform="translate(0 10)"><path d="M384.5 330c69.54 0 138.96 29.46 167.55 88.22 6.95 14.28 8.58 25.68 7.78 35.7-.8 10.04-4.04 18.7-6.9 27.58-2.84 8.86-5.28 17.9-4.38 28.57s5.13 22.91 15.54 38.21c2.53 3.73 3.19 7.1 2.3 10.14-.86 3.07-3.32 5.93-7.25 8.57-7.87 5.27-21.37 9.5-38.73 12.72-34.67 6.45-84.43 8.85-134.35 7.91-49.9-.93-99.93-5.21-135.14-12.13-17.6-3.46-31.46-7.57-39.73-12.22-4.14-2.33-6.8-4.75-7.9-7.22-1.05-2.41-.65-4.97 1.6-7.73 9.38-11.58 13.1-21.96 13.8-31.93s-1.6-19.5-4.2-29.3c-5.15-19.57-11.43-40.41 2.45-68.93 28.6-58.75 98.02-88.2 167.56-88.2Z" fill="#724133" stroke="black"/><path d="M255.76 418.4c44.19-117.2 214.44-117.2 258.63 0 5.37 14.24 6.64 25.62 6.02 35.63s-3.13 18.68-5.33 27.52-4.08 17.83-3.4 28.43c.69 10.62 3.96 22.8 12 38.06 1.96 3.72 2.48 7.1 1.8 10.18q-1.07 4.63-5.62 8.55c-6.05 5.24-16.45 9.44-29.84 12.65-26.77 6.42-65.2 8.82-103.74 7.89s-77.18-5.2-104.36-12.1c-13.6-3.4-24.27-7.5-30.64-12.1q-4.81-3.44-6.1-7.2c-.82-2.42-.5-5.01 1.24-7.8 7.26-11.5 10.12-21.84 10.66-31.75s-1.24-19.37-3.23-29.12c-4-19.51-8.85-40.32 1.88-68.8Z" fill="black" fill-opacity="0.2" stroke="black"/></g><path d="M432.5 556.5v69.45l.4.07c120.31 22.8 211.36 128.92 211.6 256.48h-520c.24-127.56 91.29-233.7 211.6-256.48l.4-.07V556.5z" fill="#a36b4f" stroke="black"/><path d="M336 556h97v37s-30.58 9.4-49 9.5c-19.59.1-48-9.5-48-9.5z" fill="black" fill-opacity="0.2"/><path d="M191.5 452.5c-20-77.5 33.5-50 33.5-50C189.18 286.68 217 140 384 140s194.82 146.68 159 262.5c0 0 53.5-27.5 33.5 50-11.1 43-51 43-51 43C519.57 545.9 434 591 384 591s-135.57-45.1-141.5-95.5c0 0-39.9 0-51-43Z" fill="#a36b4f" stroke="black"/><path d="M202.22 410c19.81-10.14 38.7 54.5 30 69-16.5 8.5-55-56.21-30-69m363.96 0c-19.82-10.14-38.7 54.5-30 69 16.5 8.5 55-56.21 30-69M384 469.5c-7.81 0-18-7.5-16-9.5 2-3 8.19 3 16 3s14-6 16-3c1.81 2.17-8.19 9.5-16 9.5" fill="black" fill-opacity="0.2"/><path d="M455 878.5V648s-40.54 28.56-71 27-68.5-27-68.5-27v230.5z" fill="#e8e9e6"/><path d="M455 878.5V648s-40.54 28.56-71 27-68.5-27-68.5-27v230.5z" fill="black" fill-opacity="0.2" stroke="black"/><g fill="#e8e9e6"><path d="M610.5 679C591.42 661 433 624.5 433 624.5s14.17 26.29 15 50.5c2.69 78.5-5 205-5 205h217s-19.5-172.7-49.5-201M108 880h227.5s-8.95-126.5-8.5-205c.13-23.24 9.5-50.5 9.5-50.5s-102.1 16.64-129.5 33C171 679 108 880 108 880"/><path d="M610.5 679C591.42 661 433 624.5 433 624.5s14.17 26.29 15 50.5c2.69 78.5-5 205-5 205h217s-19.5-172.7-49.5-201ZM108 880h227.5s-8.95-126.5-8.5-205c.13-23.24 9.5-50.5 9.5-50.5s-102.1 16.64-129.5 33C171 679 108 880 108 880Z" stroke="black"/></g><mask id="mouthLaugh-a" style="mask-type:alpha" maskUnits="userSpaceOnUse" x="336" y="487" width="97" height="52"><path d="M384.13 487.07c19.7 0 33.7-1.33 47.46 7.54 4.36 2.81-12.42 44.35-47.46 44.35s-51.81-41.54-47.45-44.35c13.75-8.87 27.75-7.54 47.45-7.54" fill="#611519"/></mask><g mask="url(#mouthLaugh-a)"><path d="M384.13 487.07c19.7 0 33.7-1.33 47.46 7.54 4.36 2.81-12.42 44.35-47.46 44.35s-51.81-41.54-47.45-44.35c13.75-8.87 27.75-7.54 47.45-7.54" fill="#611519"/><path d="M384.13 485.3c.04 0 18.64 0 29.27 1.33 7 .87 12.86 5.32 12.86 5.32s-1.76 4.31-3.54 6.65a37 37 0 0 1-4.44 4.44s-9.37-2.44-15.52-3.1c-7.4-.8-18.6-.9-18.63-.9 0 0-11.22.09-18.62.9-6.14.66-15.5 3.09-15.53 3.1 0 0-2.95-2.5-4.43-4.44-1.79-2.34-3.55-6.64-3.55-6.65.02-.01 5.87-4.45 12.86-5.32 10.64-1.33 29.27-1.33 29.27-1.33" fill="#F6F1E4"/><path d="M384.13 519.89c.03 0 9.48.24 15.08 2.22 5.27 1.85 12.42 7.1 12.42 7.1s-5.96 6.92-11.09 9.3c-5.85 2.73-16.38 2.23-16.4 2.22 0 0-10.56.52-16.42-2.21-5.12-2.39-11.07-9.3-11.09-9.32.02-.01 7.16-5.24 12.42-7.1 5.62-1.97 15.08-2.21 15.08-2.21" fill="#E0564B"/></g><path fill-rule="evenodd" clip-rule="evenodd" d="m543 403.07-1-.07 1 .07v.03l-.01.1-.03.38-.11 1.47-.45 5.6a1523 1523 0 0 1-9.27 84c-3.36 23.96-7.6 49-12.79 70.2-2.6 10.58-5.42 20.23-8.5 28.3-3.07 8.06-6.42 14.62-10.07 19-10.68 12.77-29.9 33.45-51.5 50.94-10.82 8.74-22.24 16.7-33.52 22.5-11.27 5.77-22.45 9.4-32.75 9.4s-21.55-3.63-32.9-9.4c-11.37-5.8-22.93-13.75-33.86-22.5-21.86-17.5-41.33-38.17-52-50.95-3.66-4.37-7-10.93-10.08-19s-5.9-17.71-8.5-28.3c-5.19-21.2-9.43-46.23-12.79-70.18a1523 1523 0 0 1-9.72-89.61l-.1-1.47-.04-.38v-.12l1-.08-1 .07 1.93-.4c6.7 18.82 14.4 47.66 26.88 71.96 12.34 24.02 29.13 43.14 53.78 43.85 1.7-15.95 11.7-27.9 25.7-35.85 14.27-8.1 32.76-12.13 51.2-12.13s36.93 4.03 51.2 12.13c14 7.96 24 19.9 25.7 35.85 24.65-.7 41.44-19.83 53.78-43.85 12.5-24.3 20.2-53.14 26.88-71.96zM383.5 487c-34.66 0-51.49 23-54.18 43.15-1.33 10.04.8 19.54 6.2 25.1a16 16 0 0 0 10.48 4.88c4.22.3 9.07-.84 14.47-3.75 1.81-.97 3.38-2.64 4.87-4.46 1.55-1.89 2.96-3.85 4.67-5.83 3.34-3.85 7.34-7.1 13.5-7.1 6.14 0 10.14 3.25 13.48 7.1 1.71 1.98 3.12 3.94 4.67 5.83 1.5 1.82 3.05 3.49 4.86 4.46 5.4 2.9 10.26 4.06 14.48 3.75a16 16 0 0 0 10.47-4.88c5.4-5.56 7.54-15.06 6.2-25.1C435 510 418.17 487 383.5 487Z" fill="#724133" stroke="black"/><path d="M384 694c-40.31 0-96.7-57.01-118-82.5 0 0 71.61 59 117.5 59s117.5-59 117.5-59c-21.3 25.49-76.69 82.5-117 82.5" fill="black" fill-opacity="0.2"/><path d="m274.5 407.9-4.25-11c27.75 0 40.74-15.53 64.25 0 16.64 11 14.5 21.76 14.5 21.76s-2.75-16.93-41-16.93c-22.71 0-28 19-47 10z" fill="#4B2422"/><path d="M448.65 380.68c-29 10-25.5 40-25.5 40s8 21 52.5 11c27.16-6.1 26.5-41 26.5-41s-24.5-20-53.5-10" fill="#F6F1E4"/><circle cx="27" cy="27" r="27" transform="matrix(-1 0 0 1 480.15 380.68)" fill="#4B2422"/><path d="m500.65 375.18-13.5 3s-20.5-16-50 3.5c-16.64 11-14 32.5-14 32.5s5.25-29 43.5-29 30.5 28 30.5 28 3.18-5.55 4.25-9.75l2.75-10.75 10-7.5h-18.5z" fill="#4B2422"/><g fill="#724133"><path d="M302.87 328.48c14.96-3.04 24.47-23.2 36.31-14.78s-18.13 31.2-35.4 33.54c-14.8 2.02-39.28-5.72-37.33-8.45 1.94-2.74 21.93-7.37 36.42-10.3m163.35 0c-14.97-3.05-24.48-23.2-36.32-14.79s18.14 31.2 35.4 33.54c14.81 2.02 39.28-5.72 37.34-8.45-1.94-2.74-21.94-7.37-36.43-10.3"/><path d="M302.87 328.48c14.96-3.04 24.47-23.2 36.31-14.78s-18.13 31.2-35.4 33.54c-14.8 2.02-39.28-5.72-37.33-8.45 1.94-2.74 21.93-7.37 36.42-10.3Zm163.35 0c-14.97-3.04-24.48-23.2-36.32-14.78s18.14 31.2 35.4 33.54c14.81 2.02 39.28-5.72 37.34-8.45-1.94-2.74-21.94-7.37-36.43-10.3Z" stroke="black"/></g><path d="m214.5 399 11 4s-11.76-36.7 2.5-65.5c5.61-11.34 13.42-14.69 20-25.5 14.69-24.12-1.13-50.76 20-69.5 30.84-27.35 62.97 14.07 104 18 51.5 4.93 105.34-44.04 132.5 0 9.42 15.28 4.06 28.16 11.5 44.5 6.26 13.75 21 32.5 21 32.5l4 66 9.5-4.5c4.33-27.17 13-82.6 13-87s20.67-19.83 39.5-27h-23c12.33-22.5 37.6-69.4 40-77s-18.67 3.17-29.5 9.5c0 0 16.6-20.98 21-37 4.76-17.32 0-46 0-46l-31.5 17 10.5-59-27 11.5 7-65S540.8 69.5 516 77.5c-25.46 8.2-68.5 0-68.5 0l13-30-98 37.5V47.5l-58 37.5V61s-27.5 17.01-42 31.5C246.28 108.7 228 140 228 140l-35.5-24.5 5 77-38-12s2.08 24.06 9.5 37c5.1 8.9 17 20 17 20l-26.5 23h38l-21 35h21z" fill="#724133" stroke="black"/></g></svg>